# xmcd CD database file
#
# Track frame offsets:
#	150
#	29917
#	56785
#	79515
#	110527
#	141472
#	173430
#	203677
#	232530
#	267562
#	293660
#
# Disc length: 4368 seconds
#
# Revision: 0
# Processed by: cddbd v1.5.1PL0 Copyright (c) Steve Scherf et al.
# Submitted via: CDex 1.51
#
DISCID=98110e0b
DTITLE=Omnibas - Rare Tracks - The Other Side Of Blue Note 4000 Series Disc3
DYEAR=1900
DGENRE=Jazz
TTITLE0=Apostrophe
TTITLE1=Stella By Starlight
TTITLE2=Blues In The Closet
TTITLE3=Face To Face [alt. take]
TTITLE4=Somethin' Strange [alt. take]
TTITLE5=Alone Together [alt. take]
TTITLE6=Pyramid [alt. take]
TTITLE7=It Ain't S'posed To Be Like That
TTITLE8=I Want More
TTITLE9=On The Sunny Side Of The Street
TTITLE10=Gravy Train [alt. take]
EXTD=
EXTT0=
EXTT1=
EXTT2=
EXTT3=
EXTT4=
EXTT5=
EXTT6=
EXTT7=
EXTT8=
EXTT9=
EXTT10=
PLAYORDER=
